<?xml version="1.0" encoding="utf-8"?>
<!-- Generator: Adobe Illustrator 25.0.0, SVG Export Plug-In . SVG Version: 6.00 Build 0)  -->
<svg version="1.1" id="Layer_1" xmlns="http://www.w3.org/2000/svg" xmlns:xlink="http://www.w3.org/1999/xlink" x="0px" y="0px"
	 viewBox="0 0 300 100" style="enable-background:new 0 0 300 100; background-color: white;" xml:space="preserve">
<g>
	<path d="M71.1,73.79c-3.24,0-5.97-0.5-8.18-1.49c-2.21-1-3.92-2.38-5.13-4.15c-1.21-1.77-1.92-3.88-2.14-6.33
		c-0.06-0.6-0.09-1.21-0.09-1.84c0-1.91,0.28-3.96,0.82-6.14c0.24-0.94,0.5-1.84,0.8-2.68c0.3-0.85,0.59-1.61,0.89-2.29
		c0.3-0.68,0.57-1.26,0.81-1.74c0.24-0.48,0.44-0.82,0.58-1.02l3.91,2.49c-0.39,0.66-0.78,1.44-1.18,2.35
		c-0.39,0.91-0.74,1.89-1.05,2.94c-0.31,1.05-0.54,2.14-0.69,3.27c-0.13,0.83-0.19,1.65-0.19,2.45c0,0.3,0.02,0.79,0.06,1.47
		s0.23,1.52,0.58,2.51c0.35,0.99,0.87,1.87,1.58,2.65c0.7,0.78,1.61,1.41,2.73,1.91c1.11,0.49,2.49,0.79,4.12,0.9
		c0.52,0.03,1.02,0.05,1.51,0.05c1.35,0,2.74-0.15,4.16-0.44c1.43-0.29,2.75-0.86,3.98-1.71c1.22-0.85,2.19-1.95,2.92-3.33
		c0.72-1.37,1.12-3.03,1.2-4.98c0.02-0.31,0.02-0.63,0.02-0.94c0-0.64-0.04-1.37-0.12-2.18c-0.08-0.81-0.2-1.68-0.38-2.61
		c-0.17-0.93-0.37-1.83-0.6-2.69c-0.23-0.86-0.46-1.66-0.69-2.39c-0.24-0.73-0.46-1.37-0.67-1.93c-0.21-0.55-0.39-1-0.53-1.33
		l4.33-1.81c0.47,0.99,0.89,1.88,1.27,2.67c0.38,0.79,0.76,1.53,1.15,2.2c0.39,0.67,0.82,1.31,1.28,1.92
		c0.46,0.6,1.02,1.21,1.68,1.82c0.28-0.52,0.61-1.09,0.99-1.72c0.38-0.63,0.81-1.28,1.29-1.95c0.49-0.67,1.01-1.36,1.59-2.05
		c0.57-0.69,1.2-1.36,1.89-2.02c1.41-1.33,2.93-2.42,4.57-3.26c1.64-0.84,3.31-1.44,5.02-1.8c0.83-0.17,1.65-0.26,2.45-0.26
		c0.28,0,0.76,0.02,1.42,0.07c0.67,0.05,1.47,0.25,2.43,0.6c0.94,0.35,1.82,0.83,2.62,1.42c0.8,0.6,1.48,1.28,2.05,2.06
		c0.56,0.78,0.99,1.64,1.27,2.58c0.24,0.77,0.35,1.57,0.35,2.4c0,0.19,0,0.38-0.02,0.57c-0.12,1.8-0.62,3.41-1.47,4.82
		c-0.85,1.41-2.04,2.61-3.56,3.6c-0.85,0.55-1.74,1-2.67,1.36c-0.93,0.36-1.87,0.65-2.8,0.87c-0.93,0.22-1.84,0.38-2.73,0.47
		c-0.89,0.09-1.7,0.15-2.43,0.17c-0.35,0.02-0.69,0.02-1.03,0.02c-2.37,0-4.66-0.26-6.87-0.76c-2.21-0.51-4.36-1.49-6.45-2.95
		c0.03,0.58,0.05,1.15,0.05,1.72s-0.02,1.12-0.05,1.67c-0.16,2.51-0.69,4.69-1.59,6.54c-0.9,1.85-2.09,3.39-3.55,4.61
		c-1.47,1.22-3.18,2.14-5.14,2.74C75.5,73.49,73.38,73.79,71.1,73.79z M93.92,53.61c0.67,0.24,1.44,0.44,2.3,0.61
		c0.86,0.17,1.77,0.3,2.73,0.38c0.69,0.06,1.39,0.09,2.09,0.09c0.28,0,0.74-0.01,1.39-0.04c0.64-0.02,1.46-0.11,2.43-0.27
		c0.98-0.16,1.92-0.39,2.82-0.69c0.9-0.31,1.72-0.69,2.46-1.16c1.8-1.13,2.8-2.74,2.99-4.82v-0.09c0-0.89-0.24-1.66-0.7-2.3
		c-0.47-0.64-1.07-1.15-1.79-1.53c-0.72-0.38-1.5-0.62-2.33-0.73c-0.3-0.03-0.59-0.05-0.87-0.05c-0.52,0-1,0.06-1.44,0.17
		c-1.27,0.31-2.52,0.77-3.74,1.39c-1.22,0.61-2.38,1.42-3.46,2.42c-0.6,0.56-1.14,1.14-1.64,1.74c-0.49,0.6-0.94,1.18-1.35,1.77
		c-0.41,0.58-0.77,1.14-1.08,1.67C94.43,52.69,94.16,53.17,93.92,53.61z M111.68,28.98l-3.83,3.83l-3.86-3.86l3.83-3.83
		L111.68,28.98z"/>
	<path d="M134.92,56.9c0,2.05-0.44,4.01-1.32,5.88c-0.88,1.87-2.04,3.6-3.49,5.21c-1.45,1.61-3.11,3.08-4.98,4.41
		c-1.87,1.33-3.79,2.49-5.76,3.48l-2.03-4.17c1.13-0.58,2.25-1.22,3.36-1.92c1.11-0.7,2.17-1.45,3.15-2.25s1.9-1.64,2.73-2.53
		c0.83-0.88,1.53-1.81,2.1-2.79c0.57-0.97,1-1.98,1.28-3.03c0.2-0.75,0.31-1.52,0.31-2.3c0-0.31-0.02-0.6-0.05-0.87
		c-0.11-0.89-0.28-1.85-0.51-2.88c-0.23-1.03-0.48-2.03-0.74-3.02c-0.27-0.99-0.53-1.92-0.8-2.79c-0.26-0.87-0.49-1.6-0.68-2.18
		l4.42-1.36c0.59,1.82,1.18,3.37,1.74,4.65c0.56,1.28,1.14,2.32,1.74,3.13c0.6,0.81,1.22,1.4,1.87,1.77
		c0.65,0.38,1.37,0.57,2.15,0.57h0.37v4.61h-0.4c-0.22,0-0.5-0.01-0.85-0.02c-0.34-0.02-0.73-0.08-1.14-0.19
		c-0.41-0.11-0.84-0.28-1.27-0.52c-0.43-0.24-0.85-0.57-1.24-0.99V56.9z"/>
	<path d="M138.94,53.92h0.47c1.18,0,2.3-0.04,3.36-0.12c1.07-0.08,1.95-0.16,2.66-0.24c-2.04-1.79-3.06-3.81-3.06-6.07
		c0-1.47,0.22-2.86,0.67-4.17c0.45-1.3,1.1-2.49,1.94-3.58c0.85-1.08,1.82-1.91,2.92-2.49c1-0.53,2.03-0.8,3.08-0.8h0.26
		c1.4,0.06,2.62,0.39,3.67,0.99c1.05,0.6,1.92,1.36,2.62,2.3c0.7,0.94,1.22,2,1.54,3.18c0.29,1.03,0.43,2.09,0.43,3.17
		c0,0.14-0.02,0.56-0.05,1.26s-0.27,1.64-0.72,2.82c-0.45,1.18-1.09,2.24-1.94,3.16c0.42,0.09,0.89,0.17,1.4,0.24
		c0.51,0.06,1.03,0.12,1.58,0.17c0.54,0.05,1.09,0.09,1.63,0.12c0.55,0.03,1.07,0.05,1.58,0.05h0.45v4.61h-0.47
		c-1.96,0-3.9-0.13-5.81-0.39c-1.91-0.26-3.77-0.69-5.57-1.28c-1.47,0.57-3.27,0.98-5.38,1.26c-2.12,0.28-4.38,0.41-6.78,0.41h-0.47
		V53.92z M151.2,41.1c-0.43,0-0.88,0.15-1.38,0.46c-0.49,0.31-0.95,0.74-1.37,1.29c-0.43,0.56-0.77,1.23-1.05,2.02
		c-0.28,0.79-0.41,1.67-0.41,2.62c0,0.38,0.11,0.77,0.32,1.2c0.22,0.42,0.51,0.83,0.89,1.24c0.39,0.4,0.85,0.77,1.4,1.11
		c0.55,0.34,1.15,0.59,1.81,0.76c0.91-0.42,1.61-0.98,2.1-1.67c0.49-0.69,0.82-1.43,0.98-2.23c0.09-0.44,0.14-0.88,0.14-1.32
		c0-0.36-0.05-0.83-0.14-1.41c-0.1-0.58-0.3-1.2-0.63-1.85c-0.32-0.65-0.72-1.18-1.19-1.6C152.21,41.31,151.71,41.1,151.2,41.1z
		 M154.85,27.26l-3.83,3.83l-3.86-3.86l3.83-3.83L154.85,27.26z"/>
	<path d="M162.49,53.92h0.49c0.66,0,1.3-0.15,1.92-0.45c0.62-0.3,1.2-0.7,1.74-1.19c0.54-0.49,1.04-1.05,1.49-1.67
		c0.46-0.62,0.85-1.25,1.2-1.89c0.36-0.72,0.66-1.43,0.92-2.13s0.47-1.36,0.65-1.97c0.18-0.62,0.33-1.19,0.44-1.71
		c0.11-0.52,0.21-0.96,0.3-1.34l4.52,1.25c-0.09,0.39-0.22,0.94-0.37,1.65c-0.15,0.71-0.29,1.47-0.42,2.29
		c-0.13,0.82-0.22,1.66-0.27,2.51c-0.02,0.31-0.03,0.61-0.03,0.89c0,0.5,0.04,1.04,0.13,1.61c0.08,0.57,0.29,1.08,0.63,1.52
		c0.34,0.44,0.83,0.66,1.47,0.66c0.8,0,1.52-0.21,2.15-0.63c0.63-0.42,1.19-0.98,1.68-1.67c0.48-0.69,0.9-1.48,1.25-2.38
		c0.34-0.89,0.64-1.8,0.89-2.73c0.25-0.93,0.45-1.84,0.6-2.74c0.15-0.9,0.26-1.71,0.34-2.43l4.59,0.87c-0.08,0.55-0.18,1.22-0.31,2
		c-0.12,0.79-0.22,1.61-0.28,2.47c-0.06,0.61-0.09,1.22-0.09,1.84c0,0.25,0.01,0.65,0.04,1.2c0.02,0.55,0.14,1.16,0.35,1.83
		c0.21,0.68,0.54,1.22,1,1.65c0.45,0.42,1.07,0.64,1.86,0.64c0.75,0,1.37-0.22,1.86-0.67c0.48-0.45,0.87-1.03,1.16-1.76
		c0.29-0.73,0.5-1.55,0.63-2.45c0.12-0.9,0.2-1.81,0.23-2.72c0.02-0.45,0.03-0.9,0.03-1.34c0-0.44-0.01-0.96-0.04-1.58
		c-0.03-0.61-0.05-1.2-0.08-1.76l4.61-0.38c0.05,0.52,0.1,1.04,0.15,1.57c0.05,0.52,0.12,1.07,0.21,1.63
		c0.09,0.57,0.19,1.16,0.33,1.79c0.13,0.63,0.32,1.29,0.55,2c0.63,1.93,1.4,3.37,2.32,4.31c0.92,0.95,1.94,1.42,3.07,1.42h0.56v4.61
		h-0.56c-0.81,0-1.62-0.11-2.4-0.34s-1.53-0.55-2.22-0.98c-0.7-0.42-1.34-0.93-1.92-1.53c-0.58-0.6-1.07-1.27-1.48-2.02
		c-0.31,0.74-0.7,1.4-1.18,2c-0.47,0.6-1.01,1.11-1.61,1.53c-0.6,0.42-1.26,0.75-1.96,0.99c-0.71,0.24-1.46,0.35-2.26,0.35
		c-1.57,0-2.94-0.4-4.12-1.21c-1.18-0.81-2.06-1.91-2.63-3.31c-0.43,0.66-0.9,1.27-1.43,1.83c-0.52,0.55-1.1,1.04-1.72,1.46
		c-0.62,0.42-1.28,0.74-1.97,0.96c-0.7,0.23-1.44,0.34-2.2,0.34c-0.74,0-1.45-0.11-2.13-0.33c-0.68-0.22-1.29-0.53-1.84-0.94
		c-0.55-0.41-1.03-0.9-1.44-1.48c-0.41-0.58-0.71-1.22-0.92-1.93c-0.49,0.69-1,1.32-1.55,1.88c-0.55,0.56-1.15,1.05-1.81,1.45
		c-0.66,0.4-1.37,0.71-2.13,0.94c-0.76,0.23-1.59,0.34-2.51,0.34h-0.49V53.92z M177.31,33.01l3.81-3.83l3.86,3.86l-3.81,3.83
		L177.31,33.01z M182.98,25.92l3.48-3.48l3.5,3.5l-3.48,3.48L182.98,25.92z M187.63,33.03l3.81-3.81l3.86,3.86l-3.81,3.81
		L187.63,33.03z"/>
	<path d="M227.01,53.92v4.61h-0.47c-1.59,0-2.9-0.27-3.95-0.81c-1.05-0.54-1.91-1.24-2.58-2.1c-0.5,0.49-1.05,0.91-1.65,1.28
		c-0.6,0.37-1.3,0.68-2.12,0.92c-0.81,0.24-1.77,0.42-2.86,0.54c-1.09,0.12-2.37,0.18-3.85,0.18h-3.5v-4.61h3.5
		c1.49,0,2.77-0.12,3.82-0.35c1.06-0.23,1.92-0.59,2.59-1.06c0.66-0.47,1.16-1.06,1.47-1.77c0.31-0.7,0.47-1.53,0.47-2.47
		c0-0.89-0.07-1.8-0.2-2.73c-0.13-0.92-0.37-1.98-0.72-3.18l4.42-1.25c0.15,0.55,0.29,1.08,0.4,1.59c0.11,0.51,0.2,1.05,0.28,1.61
		c0.08,0.57,0.15,1.18,0.22,1.84c0.07,0.66,0.14,1.4,0.2,2.23c0.05,0.58,0.13,1.19,0.26,1.83c0.12,0.64,0.33,1.24,0.62,1.79
		c0.29,0.55,0.69,1,1.2,1.36c0.51,0.36,1.16,0.54,1.96,0.54H227.01z M214.21,66.22l-3.81,3.81l-3.86-3.83l3.81-3.83L214.21,66.22z
		 M223.86,66.24l-3.81,3.83l-3.86-3.86l3.81-3.81L223.86,66.24z"/>
	<path d="M226.07,53.92h4.54c0.91,0,1.8-0.02,2.66-0.06c0.86-0.04,1.66-0.15,2.4-0.34c0.74-0.19,1.39-0.47,1.95-0.83
		c0.57-0.37,1-0.88,1.32-1.54c0.15-0.33,0.27-0.74,0.35-1.25c0.04-0.33,0.07-0.68,0.07-1.06c0-0.2-0.02-0.52-0.05-0.93
		c-0.03-0.42-0.13-0.99-0.3-1.72c-0.18-0.73-0.43-1.49-0.75-2.29l-2.05-5.03l4.19-2.07c0,0.02,0.07,0.18,0.21,0.48
		c0.14,0.31,0.33,0.72,0.55,1.24c0.23,0.52,0.48,1.12,0.74,1.8c0.26,0.68,0.52,1.41,0.75,2.18c0.7,2.27,1.11,4.28,1.22,6.02
		c0.01,0.25,0.02,0.5,0.02,0.75c0,1.43-0.24,2.68-0.7,3.76c-0.47,1.07-1.1,1.95-1.87,2.66c-0.77,0.71-1.67,1.27-2.67,1.69
		c-1,0.42-2.1,0.72-3.3,0.89c-1.2,0.17-2.44,0.26-3.73,0.26h-5.55V53.92z M230.36,63.14l3.81,3.83l-3.86,3.86L226.49,67
		L230.36,63.14z M235.58,70.57l3.48,3.48l-3.5,3.5l-3.48-3.48L235.58,70.57z M240.63,63.12l3.81,3.81l-3.86,3.86l-3.81-3.81
		L240.63,63.12z"/>
</g>
</svg>
