<?xml version="1.0" encoding="iso-8859-1"?>
<!-- Generator: Adobe Illustrator 19.0.0, SVG Export Plug-In . SVG Version: 6.00 Build 0)  -->
<svg version="1.1" id="Capa_1" xmlns="http://www.w3.org/2000/svg" xmlns:xlink="http://www.w3.org/1999/xlink" x="0px" y="0px"
	 viewBox="0 0 511.999 511.999" style="enable-background:new 0 0 511.999 511.999;" xml:space="preserve">
<path style="fill:#99DB53;" d="M288.008,37.049L288.008,37.049c21.867-31.918,71.863-15.674,70.793,23.002l0,0
	c-0.754,27.256,26.101,46.768,51.79,37.628l0,0c36.452-12.969,67.351,29.56,43.752,60.22l0,0
	c-16.631,21.608-6.373,53.178,19.782,60.883l0,0c37.113,10.934,37.113,63.502,0,74.436l0,0
	c-26.155,7.705-36.413,39.276-19.782,60.883l0,0c23.599,30.66-7.3,73.189-43.752,60.22l0,0c-25.689-9.14-52.545,10.371-51.79,37.628
	l0,0c1.07,38.676-48.926,54.92-70.793,23.002l0,0c-15.411-22.494-48.606-22.494-64.016,0l0,0
	c-21.867,31.918-71.863,15.674-70.793-23.002l0,0c0.754-27.256-26.101-46.768-51.79-37.628l0,0
	c-36.452,12.969-67.351-29.56-43.752-60.22l0,0c16.631-21.608,6.373-53.178-19.782-60.883l0,0
	c-37.113-10.934-37.113-63.502,0-74.436l0,0c26.155-7.705,36.413-39.276,19.782-60.883l0,0c-23.599-30.66,7.3-73.189,43.752-60.22
	l0,0c25.689,9.14,52.545-10.371,51.79-37.628l0,0c-1.07-38.676,48.926-54.92,70.793-23.002l0,0
	C239.403,59.543,272.597,59.543,288.008,37.049z"/>
<path d="M476.963,209.152c-9.241-2.723-16.249-9.538-19.225-18.701c-2.977-9.162-1.314-18.794,4.562-26.428
	c13.533-17.584,13.851-40.545,0.808-58.496c-13.042-17.95-34.978-24.742-55.882-17.306c-9.074,3.229-18.751,1.835-26.546-3.829
	c-7.794-5.662-12.111-14.432-11.844-24.063c0.614-22.18-12.625-40.942-33.728-47.799c-21.106-6.86-42.842,0.54-55.382,18.846
	c-5.445,7.947-14.093,12.505-23.726,12.505s-18.281-4.558-23.726-12.505c-12.54-18.306-34.278-25.702-55.382-18.846
	c-21.102,6.857-34.342,25.619-33.728,47.799c0.267,9.63-4.05,18.401-11.844,24.063c-7.795,5.663-17.472,7.058-26.546,3.829
	c-20.904-7.438-42.84-0.644-55.882,17.306c-13.043,17.951-12.725,40.912,0.809,58.496c5.876,7.634,7.539,17.267,4.562,26.428
	c-2.977,9.163-9.984,15.978-19.225,18.701C13.753,215.422,0,233.811,0,256s13.753,40.577,35.037,46.848
	c9.241,2.723,16.249,9.538,19.225,18.701c2.977,9.162,1.314,18.794-4.562,26.428c-13.533,17.584-13.851,40.545-0.808,58.496
	c13.042,17.949,34.976,24.74,55.882,17.306c9.075-3.228,18.752-1.834,26.546,3.829c7.794,5.662,12.111,14.432,11.844,24.063
	c-0.614,22.18,12.625,40.942,33.728,47.799c5.228,1.699,10.494,2.523,15.65,2.523c15.658-0.001,30.299-7.598,39.732-21.369
	c5.445-7.947,14.093-12.505,23.726-12.505c9.633,0,18.281,4.558,23.726,12.505c12.54,18.305,34.275,25.703,55.382,18.846
	c21.102-6.857,34.342-25.619,33.728-47.799c-0.267-9.63,4.051-18.401,11.844-24.063c7.794-5.664,17.47-7.06,26.546-3.829
	c20.904,7.436,42.84,0.645,55.882-17.306c13.043-17.951,12.725-40.912-0.809-58.496c-5.876-7.634-7.539-17.267-4.562-26.428
	c2.977-9.163,9.984-15.978,19.225-18.701c21.284-6.271,35.037-24.66,35.037-46.848S498.247,215.422,476.963,209.152z
	 M471.288,283.587c-15.462,4.556-27.666,16.427-32.647,31.757c-4.981,15.329-2.085,32.107,7.746,44.88
	c9.674,12.568,6.589,26.034,0.476,34.447c-6.111,8.413-17.965,15.508-32.908,10.19c-15.187-5.401-32.037-2.971-45.078,6.503
	c-13.04,9.475-20.558,24.75-20.112,40.862c0.439,15.853-9.973,24.935-19.862,28.149c-9.89,3.214-23.65,1.984-32.613-11.099
	c-9.11-13.297-24.172-21.235-40.29-21.235s-31.18,7.938-40.29,21.236c-8.962,13.082-22.722,14.309-32.613,11.098
	c-9.89-3.214-20.301-12.296-19.862-28.149c0.446-16.112-7.073-31.387-20.112-40.862c-8.463-6.149-18.529-9.33-28.706-9.33
	c-5.504,0-11.042,0.931-16.373,2.827c-14.942,5.317-26.796-1.777-32.908-10.19s-9.197-21.879,0.476-34.447
	c9.831-12.774,12.727-29.551,7.747-44.88c-4.981-15.329-17.185-27.201-32.648-31.757C25.499,279.106,20.079,266.398,20.079,256
	c0-10.398,5.42-23.106,20.633-27.587c15.462-4.556,27.666-16.427,32.647-31.757c4.981-15.329,2.085-32.107-7.746-44.88
	c-9.674-12.568-6.589-26.034-0.476-34.447c6.112-8.411,17.966-15.506,32.908-10.19c15.186,5.4,32.037,2.972,45.078-6.503
	c13.04-9.475,20.558-24.75,20.112-40.862c-0.439-15.853,9.973-24.935,19.862-28.149c9.889-3.213,23.65-1.984,32.613,11.099
	c9.11,13.297,24.172,21.235,40.29,21.235s31.18-7.938,40.29-21.235v-0.001c8.963-13.082,22.724-14.309,32.613-11.098
	c9.89,3.214,20.301,12.296,19.862,28.149c-0.446,16.112,7.073,31.387,20.112,40.862c13.04,9.475,29.892,11.905,45.078,6.503
	c14.942-5.316,26.796,1.778,32.908,10.19c6.112,8.413,9.197,21.879-0.476,34.447c-9.831,12.774-12.727,29.551-7.747,44.88
	c4.981,15.329,17.185,27.201,32.648,31.757C486.5,232.894,491.92,245.602,491.92,256
	C491.922,266.398,486.501,279.105,471.288,283.587z"/>
<path d="M113.563,223.937c4.335,0,8.335-2.831,9.624-7.2c8.282-28.062,25.754-53.313,49.198-71.104
	c24.215-18.376,53.128-28.089,83.615-28.089c5.545,0,10.039-4.495,10.039-10.039S261.544,97.466,256,97.466
	c-34.906,0-68.017,11.125-95.752,32.174c-26.831,20.361-46.832,49.275-56.317,81.414c-1.57,5.319,1.469,10.901,6.787,12.471
	C111.666,223.804,112.622,223.937,113.563,223.937z"/>
<path d="M378.089,341.142c-4.322-3.475-10.641-2.786-14.114,1.534c-26.452,32.907-65.807,51.779-107.975,51.779
	c-5.545,0-10.039,4.495-10.039,10.039s4.495,10.039,10.039,10.039c48.282,0,93.341-21.606,123.624-59.277
	C383.098,350.935,382.41,344.615,378.089,341.142z"/>
<circle cx="391.54" cy="318.409" r="10.206"/>
<path d="M111.614,331.973c-2.83-2.83-1.363-7.23,1.676-10.27l36.573-36.573c2.934-2.933,7.23-1.152,10.06,1.677
	c3.248,3.248,4.611,7.545,1.887,10.269L132.886,326l20.958,20.957l16.033-16.033c2.725-2.724,6.812-1.572,9.641,1.258
	c2.411,2.411,3.982,6.497,1.048,9.431l-16.033,16.033l28.714,28.715c2.829,2.829,0.838,7.755-2.515,11.108
	c-3.458,3.459-8.279,5.344-11.108,2.516L111.614,331.973z"/>
<path d="M164.741,278.636c-2.201-2.201-2.411-5.973,0.21-8.594l20.749-20.749c13.728-13.728,30.076-19.597,46.739-2.934
	c12.05,12.051,12.68,24.417,7.231,34.687l39.193,11.736c0.943,0.105,1.781,0.734,2.201,1.153c3.458,3.458,2.619,11.632-1.363,15.614
	c-1.887,1.887-4.821,2.516-7.965,1.467l-43.804-14.042l-8.802,8.802l27.352,27.352c2.829,2.829,0.943,7.649-2.515,11.108
	c-3.354,3.353-8.279,5.344-11.108,2.516L164.741,278.636z M186.12,272.767l22.321,22.321l11.527-11.527
	c6.812-6.812,8.383-14.042,0.105-22.321c-8.279-8.279-15.614-6.812-22.425,0L186.12,272.767z"/>
<path d="M266.807,233.997l15.928-15.929c2.725-2.724,6.917-1.676,9.746,1.153c2.411,2.411,3.877,6.601,0.942,9.536l-15.928,15.929
	l21.064,21.065l29.657-29.657c2.725-2.725,7.126-1.467,10.374,1.781c2.829,2.83,4.506,7.23,1.572,10.165l-37.307,37.307
	c-3.039,3.039-7.441,4.506-10.27,1.677l-68.011-68.012c-2.83-2.83-1.363-7.231,1.676-10.27l37.307-37.307
	c2.934-2.934,7.335-1.257,10.165,1.572c3.248,3.249,4.506,7.651,1.782,10.375l-29.657,29.657L266.807,233.997z"/>
<path d="M322.345,178.459l15.929-15.929c2.725-2.725,6.916-1.676,9.746,1.153c2.411,2.41,3.877,6.601,0.943,9.536l-15.929,15.929
	l21.064,21.065l29.657-29.658c2.724-2.724,7.126-1.467,10.374,1.782c2.829,2.829,4.506,7.23,1.571,10.165l-37.307,37.307
	c-3.039,3.039-7.441,4.505-10.269,1.676l-68.012-68.011c-2.83-2.83-1.363-7.231,1.677-10.27l37.307-37.307
	c2.934-2.934,7.336-1.258,10.166,1.572c3.248,3.248,4.506,7.65,1.781,10.375l-29.657,29.657L322.345,178.459z"/>
<g>
</g>
<g>
</g>
<g>
</g>
<g>
</g>
<g>
</g>
<g>
</g>
<g>
</g>
<g>
</g>
<g>
</g>
<g>
</g>
<g>
</g>
<g>
</g>
<g>
</g>
<g>
</g>
<g>
</g>
</svg>
