<svg id="_x33_0" enable-background="new 0 0 64 64" height="512" viewBox="0 0 64 64" width="512" xmlns="http://www.w3.org/2000/svg"><g><g><g><path d="m28 18h.82c-2.43 1.28-5.14 1.97-7.9 2-.48-2.84-2.95-5-5.92-5-3.31 0-6 2.69-6 6 0 2.97 2.16 5.44 5 5.92v7.08h-1v-1.05c0-1.19-.71-2.25-1.8-2.7-.01 0-.03-.01-.04-.01-1.09-.46-2.35-.22-3.19.62l-.75.75-2.83-2.83.75-.75c.84-.84 1.08-2.1.62-3.19 0-.01-.01-.03-.01-.04-.45-1.09-1.51-1.8-2.7-1.8h-1.05v-4h1.05c1.19 0 2.25-.71 2.7-1.8 0-.01.01-.03.01-.04.46-1.09.22-2.35-.62-3.19l-.75-.75 2.83-2.83.75.75c.84.84 2.1 1.08 3.19.62.01 0 .03-.01.04-.01 1.09-.45 1.8-1.51 1.8-2.7v-1.05h4v1.05c0 1.19.71 2.25 1.8 2.7.01 0 .03.01.04.01 1.09.46 2.35.22 3.19-.62l.75-.75 1.25 1.25c-.02.12-.03.24-.03.36 0 1.1.9 2 2 2h2c-.55 0-1.05.22-1.41.59-.37.36-.59.86-.59 1.41 0 1.1.9 2 2 2z" fill="#fcd770"/></g><g><path d="m62 43v4h-1.05c-1.19 0-2.25.71-2.7 1.8 0 .01-.01.03-.01.04-.46 1.09-.22 2.35.62 3.19l.75.75-2.83 2.83-.75-.75c-.84-.84-2.1-1.08-3.19-.62-.01 0-.03.01-.04.01-1.09.45-1.8 1.51-1.8 2.7v1.05h-4v-1.05c0-1.19-.71-2.25-1.8-2.7-.01 0-.03-.01-.04-.01-.44-.19-.91-.26-1.37-.22.43-.52.85-1.05 1.24-1.6.47-.65.91-1.33 1.32-2.03h.01c.8.39 1.69.61 2.64.61 3.31 0 6-2.69 6-6 0-3-2.21-5.49-5.08-5.93.05-.67.08-1.35.08-2.04v-5.03h1v1.05c0 1.19.71 2.25 1.8 2.7.01 0 .03.01.04.01 1.09.46 2.35.22 3.19-.62l.75-.75 2.83 2.83-.75.75c-.84.84-1.08 2.1-.62 3.19 0 .01.01.03.01.04.45 1.09 1.51 1.8 2.7 1.8z" fill="#fcd770"/></g><g><path d="m62 7v12c0 .55-.45 1-1 1h-6c-.55 0-1-.45-1-1v-1-12h7c.55 0 1 .45 1 1z" fill="#ff826e"/></g><g><path d="m43.02 7.99c-.07-.11-.13-.22-.19-.33v-.02c-.51-1-1.53-1.64-2.66-1.64-1.05 0-2.18 0-3.17 0-.83 0-1.58-.34-2.12-.88s-.88-1.29-.88-2.12c0-.55.45-1 1-1h7.47c3.61 0 7.13 1.07 10.13 3.07l1.4.93v12c-1.23.99-2.58 1.8-4 2.43v-1.43l-3.31.66c-1.12.23-2.27.34-3.42.34-1.71 0-3.41-.26-5.04-.75-1.05-.32-2.07-.74-3.05-1.25h4.82v-4-.38c0-1.3.37-2.55 1.05-3.62.5-.79 1.17-1.47 1.97-2.01z" fill="#f0d0b4"/></g><g><path d="m43.79 54.02c-3.05 3.61-7.08 6.41-11.79 7.98-.31-.1-.61-.21-.91-.32.55-.36.91-.98.91-1.68 0-.55-.22-1.05-.59-1.41-.36-.37-.86-.59-1.41-.59h4c1.1 0 2-.9 2-2 0-.12-.01-.23-.03-.34 6.16-4.05 10.03-10.99 10.03-18.63v-13.2c-.9.11-1.82.17-2.73.17-4 0-7.88-.9-11.27-3-3.39 2.1-7.27 3-11.27 3-.91 0-1.83-.06-2.73-.17v13.2c0 1.78.21 3.53.61 5.2v.01c-1.32.21-2.61.57-3.85 1.06-.5-2.02-.76-4.12-.76-6.27v-3.03-7.08-7.92l3.31.66c1.12.23 2.27.34 3.42.34h.19c2.76-.03 5.47-.72 7.9-2h.01c.54-.29 1.06-.59 1.56-.93l1.61-1.07 1.61 1.07c.5.34 1.02.64 1.56.93h.01c.98.51 2 .93 3.05 1.25 1.63.49 3.33.75 5.04.75 1.15 0 2.3-.11 3.42-.34l3.31-.66v1.43 11.57 5.03c0 .69-.03 1.37-.08 2.04-.31 4.07-1.56 7.93-3.57 11.32-.41.7-.85 1.38-1.32 2.03-.39.55-.81 1.08-1.24 1.6z" fill="#aab2bd"/></g><g><path d="m42.83 7.66c.06.11.12.22.19.33-.8.54-1.47 1.22-1.97 2.01h-13.05c-1.1 0-2-.9-2-2 0-.55.22-1.05.59-1.41.36-.37.86-.59 1.41-.59h9 3.17c1.13 0 2.15.64 2.66 1.64z" fill="#f0d0b4"/></g><g><path d="m28 10h13.05c-.68 1.07-1.05 2.32-1.05 3.62v.38h-12-2c-1.1 0-2-.9-2-2 0-.12.01-.24.03-.36.08-.41.27-.77.56-1.05.36-.37.86-.59 1.41-.59z" fill="#f0d0b4"/></g><g><path d="m40 14v4h-4.82-.01c-.54-.29-1.06-.59-1.56-.93l-1.61-1.07-1.61 1.07c-.5.34-1.02.64-1.56.93h-.01-.82c-1.1 0-2-.9-2-2 0-.55.22-1.05.59-1.41.36-.37.86-.59 1.41-.59z" fill="#f0d0b4"/></g><g><path d="m34 54c.55 0 1.05.22 1.41.59.29.28.49.65.56 1.07.02.11.03.22.03.34 0 1.1-.9 2-2 2h-4c.55 0 1.05.22 1.41.59.37.36.59.86.59 1.41 0 .7-.36 1.32-.91 1.68-.32.2-.69.32-1.09.32h-8.6c-4.14 0-8.16-1.41-11.4-4v-12l1.4-.93c1.06-.71 2.19-1.3 3.36-1.77 1.24-.49 2.53-.85 3.85-1.06.96-.16 1.94-.24 2.92-.24h5.47c.55 0 1 .45 1 1 0 .83-.34 1.58-.88 2.12s-1.29.88-2.12.88h7 2c.55 0 1.05.22 1.41.59.37.36.59.86.59 1.41 0 1.1-.9 2-2 2h2c.55 0 1.05.22 1.41.59.37.36.59.86.59 1.41 0 1.1-.9 2-2 2z" fill="#f0d0b4"/></g><g><path d="m43.27 24c-4 0-7.88-.9-11.27-3-3.39 2.1-7.27 3-11.27 3-.91 0-1.83-.06-2.73-.17v13.2c0 1.78.21 3.53.61 5.2v.01c.96-.16 1.94-.24 2.92-.24h5.47c.55 0 1 .45 1 1 0 .83-.34 1.58-.88 2.12s-1.29.88-2.12.88h7 2c.55 0 1.05.22 1.41.59.37.36.59.86.59 1.41 0 1.1-.9 2-2 2h2c.55 0 1.05.22 1.41.59.37.36.59.86.59 1.41 0 1.1-.9 2-2 2h-2c.55 0 1.05.22 1.41.59.29.28.49.65.56 1.07 6.16-4.05 10.03-10.99 10.03-18.63v-13.2c-.9.11-1.82.17-2.73.17z" fill="#5cd6b3"/></g><g><path d="m10 58v1c0 .55-.45 1-1 1h-6c-.55 0-1-.45-1-1v-12c0-.55.45-1 1-1h7z" fill="#ff826e"/></g></g><g><path d="m61 5h-6.697l-1.149-.767c-3.174-2.115-6.867-3.233-10.681-3.233h-7.473c-1.103 0-2 .897-2 2 0 .732.212 1.41.556 2.001l-5.556-.001c-1.654 0-3 1.346-3 3 0 .395.081.77.22 1.116-.558.151-1.05.455-1.429.871l-1.011-1.011-1.457 1.456c-.551.552-1.376.712-2.141.392-.718-.297-1.182-.991-1.182-1.769v-2.055h-6v2.055c0 .778-.464 1.473-1.223 1.785-.725.306-1.55.144-2.102-.408l-1.455-1.456-4.244 4.244 1.455 1.456c.551.552.712 1.377.393 2.141-.297.718-.991 1.183-1.769 1.183h-2.055v6h2.055c.778 0 1.473.465 1.786 1.222.303.726.142 1.551-.409 2.103l-1.456 1.455 4.244 4.244 1.457-1.456c.551-.552 1.375-.712 2.14-.394.718.299 1.183.993 1.183 1.771v2.055h1v2.026c0 1.914.213 3.821.609 5.685-.954.431-1.88.934-2.762 1.522l-1.15.767h-6.697c-1.103 0-2 .897-2 2v12c0 1.103.897 2 2 2h6c.809 0 1.504-.485 1.819-1.178 3.129 2.056 6.824 3.178 10.584 3.178h8.597c.412 0 .805-.084 1.163-.235.173.061.345.125.52.183l.317.106.317-.105c4.724-1.574 8.781-4.354 11.904-7.917.195.02.393.06.596.144.718.297 1.183.991 1.183 1.769v2.055h6v-2.055c0-.778.465-1.473 1.222-1.786.726-.302 1.55-.143 2.102.409l1.456 1.456 4.244-4.244-1.455-1.456c-.551-.552-.712-1.377-.393-2.141.297-.718.991-1.183 1.769-1.183h2.055v-6h-2.055c-.778 0-1.473-.465-1.786-1.222-.303-.726-.142-1.551.409-2.103l1.455-1.456-4.244-4.244-1.457 1.456c-.551.552-1.375.712-2.141.392-.717-.296-1.181-.99-1.181-1.768v-2.055h-1v-9.941c.753-.366 1.481-.78 2.18-1.24.314.694 1.01 1.181 1.82 1.181h6c1.103 0 2-.897 2-2v-12c0-1.103-.897-2-2-2zm-33 2 9 .001v-.001h3.17c.603 0 1.148.279 1.521.743-.436.376-.818.801-1.156 1.257h-12.535c-.551 0-1-.448-1-1s.449-1 1-1zm6.166 9.242-1.863-1.242h6.697v2h-3.564c-.433-.234-.859-.483-1.27-.758zm-5.602.758h-.564c-.551 0-1-.448-1-1s.449-1 1-1h3.697l-1.862 1.242c-.412.275-.838.524-1.271.758zm-2.564-6h13.465c-.229.639-.371 1.31-.426 2h-13.039c-.551 0-1-.448-1-1s.449-1 1-1zm-14.452 18.313c-1.478-.616-3.161-.286-4.287.841l-.041.042-1.416-1.416.042-.042c1.126-1.127 1.456-2.81.827-4.318-.607-1.47-2.027-2.42-3.618-2.42h-.055v-2h.055c1.591 0 3.011-.95 3.631-2.452.616-1.477.286-3.159-.84-4.286l-.042-.042 1.416-1.416.042.042c1.128 1.129 2.811 1.457 4.318.827 1.47-.607 2.42-2.027 2.42-3.618v-.055h2v.055c0 1.591.95 3.012 2.451 3.631 1.476.618 3.16.288 4.287-.84l.042-.042.222.223c.012 1.371.951 2.514 2.218 2.858-.139.345-.22.72-.22 1.115 0 .838.347 1.595.903 2.14-1.364.452-2.781.722-4.215.808-.887-2.913-3.566-4.948-6.688-4.948-3.86 0-7 3.141-7 7 0 3.141 2.059 5.833 5 6.704v2.632c-.39-.433-.88-.786-1.452-1.023zm1.452-11.533v7.786c-1.787-.779-3-2.536-3-4.567 0-2.757 2.243-5 5-5 2.008 0 3.747 1.187 4.538 2.94-.681-.048-1.36-.124-2.034-.258zm-4 41.22h-6v-12h6zm21 2h-8.597c-3.747 0-7.418-1.249-10.403-3.506v-10.959l.956-.638c2.843-1.895 6.153-2.897 9.571-2.897h5.473c0 1.103-.896 2-1.996 2h-.004-3.006v2h3.006.004 8.996c.551 0 1 .448 1 1s-.449 1-1 1h-12v2h14c.551 0 1 .448 1 1s-.449 1-1 1h-14v2h12c.551 0 1 .448 1 1s-.449 1-1 1h-12v2h8c.551 0 1 .448 1 1s-.449 1-1 1zm-11-23.974v-12.092c.576.044 1.153.066 1.725.066 3.803 0 7.248-.779 10.275-2.304v22.304h-2.556c.344-.591.556-1.268.556-2 0-1.103-.897-2-2-2h-5.473c-.714 0-1.421.052-2.124.13-.263-1.348-.403-2.724-.403-4.104zm19.987 14.843c-.059-1.324-.974-2.418-2.207-2.753.139-.346.22-.721.22-1.116 0-1.654-1.346-3-3-3h-1v-22.304c3.027 1.526 6.472 2.304 10.275 2.304.572 0 1.149-.022 1.725-.066v12.093c0 5.624-2.195 10.911-6.013 14.842zm-6.045 8.705c.036-.186.058-.378.058-.574 0-.352-.072-.686-.184-1h1.184c1.594 0 2.89-1.254 2.982-2.825 6.279-4.355 10.018-11.465 10.018-19.149v-14.336l-1.126.144c-.863.11-1.738.166-2.599.166-4.079 0-7.695-.959-10.749-2.851l-.526-.326-.526.326c-3.054 1.892-6.67 2.851-10.749 2.851-.861 0-1.735-.056-2.599-.166l-1.126-.144v14.336c0 1.485.148 2.965.426 4.417-.653.142-1.295.325-1.93.535-.323-1.627-.496-3.286-.496-4.952v-16.806l2.113.423c1.187.237 2.403.357 3.612.357 3.648 0 7.182-1.069 10.219-3.094l1.056-.704 1.056.704c3.037 2.025 6.57 3.094 10.219 3.094 1.209 0 2.425-.12 3.613-.357l2.112-.423v16.807c0 10.466-6.404 19.753-16.058 23.547zm17.837-20.234c1.889.729 3.221 2.573 3.221 4.66 0 2.757-2.243 5-5 5-.412 0-.813-.052-1.204-.149 1.551-2.919 2.572-6.133 2.983-9.511zm1.672-3.654c1.476.618 3.16.288 4.287-.84l.042-.042 1.416 1.416-.042.042c-1.126 1.127-1.456 2.81-.827 4.318.607 1.47 2.027 2.42 3.618 2.42h.055v2h-.055c-1.591 0-3.011.95-3.631 2.452-.616 1.477-.286 3.159.84 4.286l.042.042-1.416 1.416-.042-.042c-1.128-1.128-2.811-1.459-4.319-.827-1.469.608-2.419 2.027-2.419 3.618v.055h-2v-.055c0-1.574-.931-2.977-2.407-3.609.412-.554.802-1.123 1.172-1.707.716.243 1.464.371 2.235.371 3.86 0 7-3.141 7-7 0-3.118-2.118-5.857-5.05-6.716.019-.419.05-.835.05-1.258v-1.363c.39.434.88.787 1.451 1.023zm-5.955-18.004c-1.82.363-3.679.39-5.496.134v-5.191c0-1.624.684-3.145 1.854-4.228.967 1.009 2.307 1.603 3.759 1.603h.387v-2h-.387c-1.23 0-2.334-.684-2.892-1.802-.676-1.355-2.036-2.198-3.551-2.198h-3.174c-1.1 0-1.996-.897-1.996-2h7.473c3.418 0 6.728 1.002 9.571 2.897l.956.638v10.965c-.636.481-1.304.917-2 1.306v-1.026zm14.504.318h-6v-12h6z"/><path d="m47.825 13.264c-2.254.563-4.039 2.216-4.774 4.42l1.897.633c.518-1.553 1.774-2.716 3.362-3.113l.932-.233-.485-1.939z"/><path d="m1 39h2v2h-2z"/><path d="m5 39h2v2h-2z"/><path d="m9 39h2v2h-2z"/><path d="m53 25h2v2h-2z"/><path d="m57 25h2v2h-2z"/><path d="m61 25h2v2h-2z"/></g></g></svg>